General
Complete name : Timbaland - Hands In The Air ft. Ne-Yo 720pHD{ECS}.mp4
Format : MPEG-4
Format profile : Base Media
Codec ID : isom
File size : 55.0 MiB
Duration : 4mn 7s
Overall bit rate : 1 864 Kbps
Encoded date : UTC 2012-07-18 04:59:53
Tagged date : UTC 2012-07-18 04:59:53

Video
ID : 1
Format : AVC
Format/Info : Advanced Video Codec
Format profile : High@L3.1
Format settings, CABAC : Yes
Format settings, ReFrames : 5 frames
Codec ID : avc1
Codec ID/Info : Advanced Video Coding
Duration : 4mn 7s
Bit rate : 1 732 Kbps
Maximum bit rate : 4 314 Kbps
Width : 1 280 pixels
Height : 528 pixels
Display aspect ratio : 2.40:1
Frame rate mode : Constant
Frame rate : 23.976 fps
Color space : YUV
Chroma subsampling : 4:2:0
Bit depth : 8 bits
Scan type : Progressive
Bits/(Pixel*Frame) : 0.107
Stream size : 51.2 MiB (93%)
Writing library : x264 core 125 r2200 999b753



Audio
ID : 2
Format : AC-3
Format/Info : Audio Coding 3
Mode extension : CM (complete main)
Format settings, Endianness : Big
Codec ID : ac-3
Duration : 4mn 7s
Bit rate mode : Constant
Bit rate : 128 Kbps
Channel(s) : 2 channels
Channel positions : Front: L R
Sampling rate : 44.1 KHz
Bit depth : 16 bits
Compression mode : Lossy
Stream size : 3.78 MiB (7%)
Encoded date : UTC 2012-07-18 04:59:54
Tagged date : UTC 2012-07-18 04:59:54
 
http://i1271.photobucket.com/albums/jj629/sameer_ecs/Timbaland-HandsInTheAirftNe-Yo720pHDECSmp4_thumbs_20120718_230537.jpg
